<?xml version="1.0" encoding="iso-8859-1"?>
<!-- Uploaded to: SVG Repo, www.svgrepo.com, Generator: SVG Repo Mixer Tools -->
<svg version="1.1" id="Layer_1" xmlns="http://www.w3.org/2000/svg" xmlns:xlink="http://www.w3.org/1999/xlink" 
	 viewBox="0 0 512.003 512.003" xml:space="preserve">
<rect x="38.4" y="422.401" style="fill:#D9E5CB;" width="51.2" height="76.8"/>
<rect x="89.6" y="396.801" style="fill:#C6D9B0;" width="51.2" height="102.4"/>
<rect x="140.8" y="345.601" style="fill:#B3CC96;" width="51.2" height="153.6"/>
<rect x="243.2" y="192.001" style="fill:#788F5D;" width="51.2" height="307.2"/>
<rect x="192" y="294.401" style="fill:#A0BF7C;" width="51.2" height="204.8"/>
<polygon style="fill:#FF877F;" points="372.173,499.201 360.977,358.401 317.466,358.401 347.716,192.001 471.484,192.001 
	501.734,358.401 458.223,358.401 447.027,499.201 "/>
<path style="fill:#FFE7E5;" d="M409.6,140.801c-35.294,0-64-28.706-64-64s28.706-64,64-64s64,28.706,64,64
	S444.894,140.801,409.6,140.801z"/>
<g>
	<path style="fill:#573A32;" d="M511.59,341.027l-25.6-140.8c-2.219-12.177-12.817-21.026-25.19-21.026H358.4
		c-12.373,0-22.972,8.849-25.182,21.026l-25.6,140.8c-1.357,7.467,0.666,15.155,5.53,20.983c4.864,5.828,12.066,9.19,19.652,9.19
		h16.358l9.327,117.231c1.058,13.303,12.16,23.569,25.515,23.569h51.2c13.355,0,24.465-10.266,25.523-23.569l9.318-117.231H486.4
		c7.595,0,14.788-3.371,19.652-9.199C510.916,356.174,512.947,348.494,511.59,341.027z M446.396,345.601l-11.196,140.8H384
		l-11.196-140.8H332.8l25.6-140.8h38.4v77.875c0,7.074,5.726,12.8,12.8,12.8c7.074,0,12.8-5.726,12.8-12.8v-77.875h38.4l25.6,140.8
		H446.396z"/>
	<path style="fill:#573A32;" d="M409.6,153.601c42.351,0,76.8-34.449,76.8-76.8s-34.449-76.8-76.8-76.8s-76.8,34.449-76.8,76.8
		S367.258,153.601,409.6,153.601z M409.6,25.601c28.279,0,51.2,22.921,51.2,51.2s-22.921,51.2-51.2,51.2
		c-28.279,0-51.2-22.921-51.2-51.2S381.321,25.601,409.6,25.601z"/>
	<path style="fill:#573A32;" d="M307.2,179.201h-76.8v102.4h-51.2v51.2H128v51.2H76.8v25.6H25.6v76.8H0v25.6h332.8v-25.6h-25.6
		V179.201z M76.8,486.401H51.2v-51.2h25.6V486.401z M128,486.401h-25.6v-76.8H128V486.401z M179.2,486.401h-25.6v-128h25.6V486.401z
		 M230.4,486.401h-25.6v-179.2h25.6V486.401z M281.6,486.401H256v-281.6h25.6V486.401z"/>
</g>
</svg>